<svg width="500" height="500" viewBox="0 0 500 500" fill="none" xmlns="http://www.w3.org/2000/svg">
<rect width="500" height="500" fill="white"/>
<ellipse cx="250.038" cy="252.846" rx="198.71" ry="198.71" fill="white"/>
<path d="M249.85 451.304C202.75 450.495 160.466 436.196 123.698 406.348C89.283 378.448 66.7074 342.976 55.1254 300.372C54.243 297.174 54.7945 295.447 58.2875 294.123C69.7224 289.859 81.5985 287.213 93.2908 283.904C106.969 280.045 120.867 276.994 134.876 274.641C142.192 273.428 149.546 272.178 156.863 271.112C159.878 270.671 161.79 270.524 161.716 275.376C161.569 287.029 157.488 296.623 149.62 304.747C141.678 312.981 139.104 323.052 139.986 333.933C140.869 344.997 143.847 355.363 153.738 362.348C165.614 370.692 178.299 371.611 191.793 367.494C208.559 362.421 219.553 348.085 220.031 330.625C220.398 317.649 221.501 316.767 235.326 315.26C243.231 314.414 251.173 314.01 259.115 313.311C262.719 313.017 265.109 314.01 267.903 316.914C284.338 334.154 304.267 342.608 328.239 337.278C357.985 330.662 373.685 310.812 378.722 281.515C379.752 275.56 379.972 275.56 386.002 276.7C405.122 280.265 423.653 286.036 442.441 290.889C445.346 291.624 446.559 292.653 445.714 296.292C438.765 325.956 425.491 352.46 406.445 376.206C387.252 400.136 363.758 418.589 336.181 431.748C313.826 442.408 290.295 448.915 265.439 450.422C260.255 450.752 255.071 451.23 249.85 451.304Z" fill="#E7DAC3"/>
<path d="M83.2227 47.7918C86.017 47.4242 87.929 48.674 89.8409 49.9238C120.395 70.7293 144.258 97.5264 162.421 129.654C176.062 153.841 186.835 179.204 194.924 205.707C202.609 230.961 208.198 256.618 206.874 283.305C206.69 286.981 206.249 290.657 205.845 295.288C220.846 286.099 237.134 287.643 252.834 286.099C258.975 285.511 258.827 285.731 256.842 279.96C249.452 258.456 246.731 236.621 254.011 214.566C258.276 201.664 266.769 191.996 279.932 187.99C294.529 183.542 309.384 189.46 317.546 202.73C331.886 226.035 334.496 250.406 322.363 275.586C318.943 282.68 313.134 287.753 307.398 292.789C304.236 295.582 304.53 297.053 308.244 298.964C321.922 305.912 331.592 303.008 339.791 289.554C346.409 278.71 349.535 266.58 353.138 254.633C359.315 234.048 366.043 213.758 378.508 195.893C382.994 189.46 388.619 183.983 393.877 178.212C394.759 177.219 396.377 176.889 397.701 176.227C398.988 178.984 397.443 180.895 396.487 182.88C390.274 195.746 383.398 208.317 378.434 221.808C374.132 233.46 372.294 245.627 369.536 257.611C366.963 268.822 365.565 280.328 362.367 291.355C357.035 309.845 345.012 322.784 326.04 327.342C306.92 331.937 289.345 327.342 276.439 312.161C269.968 304.552 263.718 301.831 254.195 303.412C244.451 305.029 234.45 304.552 224.633 306.426C212.904 308.669 207.867 313.41 205.955 325.063C205.514 327.783 204.668 330.577 204.889 333.26C206.212 348.331 192.277 359.322 176.54 359.726C172.275 359.837 168.12 359.285 164.076 357.815C152.31 353.588 149.626 341.163 150.545 329.253C150.95 323.923 152.862 319.071 156.833 315.359C169.003 304.074 171.76 289.37 172.569 273.748C174.481 236.401 168.525 200.341 155.472 165.383C147.457 143.916 138.706 122.669 125.58 103.702C114.549 87.7853 101.864 73.1554 89.4732 58.2681C86.8995 55.2171 83.7742 52.4602 83.2227 47.7918ZM284.749 242.65C285.337 251.95 286.661 261.691 291.073 270.844C292.691 274.226 294.198 274.189 296.735 272.13C304.824 265.477 309.494 256.728 310.266 246.51C311.149 234.232 307.508 223.278 297.03 215.742C292.875 212.728 289.639 214.125 288.279 218.977C286.146 226.476 285.19 234.195 284.749 242.65Z" fill="#3B3355"/>
<path d="M246.052 30.1064C302.308 30.5475 349.224 46.942 389.559 80.2822C431.952 115.313 457.947 160.306 466.992 214.819C473.464 253.931 469.382 292.05 455.668 328.992C446.77 352.959 433.497 374.61 416.694 393.982C399.927 413.354 380.293 429.233 358.012 441.915C333.083 456.104 306.242 464.889 277.894 468.455C262.23 470.44 246.457 470.33 230.61 469.153C211.932 467.757 193.915 463.787 176.413 457.611C139.241 444.415 107.878 422.617 82.2501 392.585C55.0416 360.678 38.0547 324.03 32.3557 282.566C23.7151 219.819 38.8269 163.136 77.985 113.071C84.2356 105.094 91.2215 97.8161 98.4281 90.7584C100.193 89.0675 101.59 86.9355 104.237 90.06C106.37 92.5964 107.142 94.177 104.274 96.8236C83.9414 115.681 68.2782 137.957 56.8433 163.173C48.0189 182.545 42.5404 202.836 39.8564 224.009C36.9149 247.314 37.3929 270.509 42.8346 293.299C48.5337 317.082 57.2109 339.836 70.3004 360.788C91.4421 394.643 119.754 420.705 155.308 438.68C176.487 449.377 198.989 456.141 222.668 459.192C255.906 463.456 288.262 460.147 319.773 449.12C355.769 436.512 386.066 415.522 410.811 386.446C432.504 360.936 446.66 331.749 455.3 299.401C460.043 281.573 462.139 263.598 461.661 245.403C460.264 196.072 444.086 152.109 412.171 114.211C385.992 83.1494 353.636 61.2044 315.03 48.5961C298.594 43.2293 281.718 40.2886 264.4 39.0756C220.682 36.0246 180.09 45.8392 142.293 67.7474C140.307 68.887 138.469 70.8352 135.858 68.2253C132.328 64.6965 132.255 64.3289 136.593 61.6822C163.839 44.9938 193.511 35.3629 225.058 31.5033C233.257 30.5108 241.567 29.7021 246.052 30.1064Z" fill="#3B3355"/>
</svg>
