<?xml version="1.0" encoding="UTF-8" standalone="no"?><!DOCTYPE svg PUBLIC "-//W3C//DTD SVG 1.1//EN" "http://www.w3.org/Graphics/SVG/1.1/DTD/svg11.dtd"><svg width="100%" height="100%" viewBox="0 0 2084 2084" version="1.1" xmlns="http://www.w3.org/2000/svg" xmlns:xlink="http://www.w3.org/1999/xlink" xml:space="preserve" xmlns:serif="http://www.serif.com/" style="fill-rule:evenodd;clip-rule:evenodd;stroke-linejoin:round;stroke-miterlimit:2;"><circle cx="1041.83" cy="1053.53" r="827.958" style="fill:none;"/><path d="M1041.04,1880.43c-196.25,-3.37 -372.434,-62.95 -525.634,-187.316c-143.395,-116.25 -237.46,-264.05 -285.719,-441.567c-3.676,-13.325 -1.379,-20.521 13.176,-26.037c47.645,-17.767 97.129,-28.792 145.847,-42.58c56.992,-16.079 114.901,-28.791 173.271,-38.595c30.484,-5.055 61.125,-10.263 91.613,-14.705c12.562,-1.837 20.529,-2.45 20.221,17.767c-0.613,48.554 -17.617,88.529 -50.4,122.379c-33.092,34.309 -43.817,76.271 -40.142,121.609c3.679,46.1 16.088,89.291 57.3,118.395c49.483,34.767 102.338,38.596 158.563,21.442c69.858,-21.137 115.666,-80.871 117.658,-153.621c1.529,-54.066 6.125,-57.741 63.729,-64.021c32.938,-3.525 66.029,-5.208 99.121,-8.12c15.017,-1.225 24.975,2.912 36.617,15.012c68.479,71.833 151.516,107.058 251.399,84.85c123.942,-27.567 189.359,-110.275 210.346,-232.346c4.292,-24.812 5.209,-24.812 30.334,-20.062c79.666,14.854 156.879,38.9 235.162,59.121c12.104,3.062 17.159,7.35 13.638,22.512c-28.954,123.6 -84.263,234.033 -163.621,332.975c-79.971,99.708 -177.863,176.596 -292.767,231.425c-93.146,44.417 -191.191,71.529 -294.758,77.808c-21.6,1.375 -43.2,3.367 -64.954,3.675Z" style="fill:#e7dac3;fill-rule:nonzero;"/><path d="M346.761,199.133c11.643,-1.532 19.61,3.675 27.576,8.883c127.309,86.689 226.738,198.344 302.417,332.209c56.838,100.779 101.725,206.458 135.429,316.888c32.021,105.225 55.309,212.129 49.792,323.324c-0.767,15.317 -2.604,30.634 -4.288,49.93c62.505,-38.288 130.371,-31.855 195.788,-38.288c25.588,-2.45 24.971,-1.533 16.7,-25.579c-30.792,-89.6 -42.129,-180.579 -11.796,-272.475c17.771,-53.758 53.159,-94.042 108.004,-110.733c60.821,-18.534 122.717,6.125 156.725,61.416c59.75,97.104 70.625,198.65 20.071,303.567c-14.25,29.558 -38.454,50.696 -62.354,71.679c-13.175,11.638 -11.95,17.767 3.525,25.729c56.992,28.95 97.283,16.85 131.446,-39.208c27.575,-45.183 40.6,-95.725 55.612,-145.504c25.738,-85.771 53.771,-170.313 105.709,-244.75c18.691,-26.804 42.129,-49.625 64.037,-73.671c3.675,-4.138 10.417,-5.513 15.934,-8.271c5.362,11.488 -1.075,19.45 -5.059,27.721c-25.887,53.608 -54.537,105.987 -75.221,162.2c-17.925,48.55 -25.583,99.246 -37.075,149.179c-10.72,46.713 -16.545,94.654 -29.87,140.6c-22.217,77.042 -72.313,130.954 -151.363,149.946c-79.667,19.146 -152.896,-0 -206.671,-63.254c-26.962,-31.704 -53.004,-43.042 -92.683,-36.454c-40.6,6.737 -82.271,4.75 -123.175,12.558c-48.871,9.346 -69.858,29.1 -77.825,77.654c-1.838,11.333 -5.363,22.975 -4.442,34.154c5.513,62.796 -52.55,108.592 -118.121,110.275c-17.77,0.463 -35.083,-1.837 -51.933,-7.962c-49.025,-17.613 -60.208,-69.384 -56.379,-119.009c1.687,-22.208 9.654,-42.425 26.2,-57.891c50.708,-47.021 62.196,-108.288 65.567,-173.379c7.966,-155.613 -16.85,-305.863 -71.238,-451.521c-33.396,-89.446 -69.858,-177.975 -124.55,-257.004c-45.962,-66.32 -98.817,-127.278 -150.445,-189.308c-10.724,-12.713 -23.746,-24.2 -26.044,-43.652Zm839.693,811.91c2.45,38.75 7.967,79.337 26.35,117.475c6.742,14.091 13.021,13.937 23.592,5.358c33.704,-27.721 53.162,-64.175 56.379,-106.75c3.679,-51.158 -11.492,-96.8 -55.15,-128.2c-17.312,-12.558 -30.796,-6.738 -36.462,13.479c-8.888,31.246 -12.871,63.408 -14.709,98.638Z" style="fill:#3b3355;fill-rule:nonzero;"/><path d="M1025.22,125.443c234.4,1.838 429.883,70.149 597.946,209.066c176.637,145.962 284.95,333.433 322.637,560.57c26.967,162.967 9.958,321.796 -47.183,475.721c-37.075,99.862 -92.379,190.075 -162.392,270.792c-69.862,80.716 -151.671,146.879 -244.508,199.721c-103.871,59.12 -215.709,95.725 -333.825,110.583c-65.267,8.271 -130.988,7.812 -197.017,2.908c-77.825,-5.816 -152.896,-22.358 -225.821,-48.091c-154.883,-54.984 -285.562,-145.809 -392.345,-270.942c-113.369,-132.946 -184.148,-285.646 -207.894,-458.413c-36.002,-261.446 26.964,-497.625 190.123,-706.229c26.044,-33.237 55.152,-63.562 85.179,-92.969c7.354,-7.045 13.175,-15.929 24.204,-2.91c8.887,10.568 12.104,17.154 0.154,28.182c-84.719,78.572 -149.982,171.389 -197.628,276.455c-36.768,80.717 -59.595,165.263 -70.779,253.484c-12.256,97.104 -10.264,193.75 12.41,288.708c23.746,99.096 59.901,193.904 114.44,281.204c88.091,141.063 206.057,249.654 354.199,324.55c88.246,44.571 182.004,72.755 280.666,85.467c138.492,17.767 273.309,3.979 404.605,-41.967c149.983,-52.533 276.22,-139.991 379.325,-261.141c90.387,-106.292 149.37,-227.904 185.37,-362.688c19.763,-74.283 28.496,-149.179 26.505,-224.991c-5.821,-205.546 -73.23,-388.725 -206.209,-546.634c-109.079,-129.423 -243.896,-220.861 -404.754,-273.395c-68.483,-22.362 -138.8,-34.615 -210.958,-39.669c-182.159,-12.712 -351.292,28.182 -508.779,119.466c-8.275,4.748 -15.934,12.866 -26.813,1.991c-14.708,-14.703 -15.012,-16.235 3.063,-27.263c113.525,-69.535 237.158,-109.664 368.604,-125.745c34.162,-4.136 68.787,-7.505 87.475,-5.821Z" style="fill:#3b3355;fill-rule:nonzero;"/></svg>